<?xml version="1.0" encoding="UTF-8"?>
<svg version="1.1" xmlns="http://www.w3.org/2000/svg" width="907" height="792">
<path d="M0 0 C2.87313422 3.38467147 4.41543475 7.06947068 5.9375 11.1875 C6.19619873 11.88367432 6.45489746 12.57984863 6.72143555 13.29711914 C8.57055329 18.44031872 10.05559753 23.61992732 11.3125 28.9375 C11.47161865 29.60998779 11.6307373 30.28247559 11.79467773 30.9753418 C23.38927109 82.9755296 -1.44270688 138.63793545 -28.5 181.64599609 C-32.87729108 188.51543629 -37.39021834 195.28473282 -42 202 C-42.53753906 202.78697266 -43.07507813 203.57394531 -43.62890625 204.38476562 C-45.24366329 206.74200552 -46.86937398 209.09121591 -48.5 211.4375 C-48.99242187 212.15381592 -49.48484375 212.87013184 -49.9921875 213.6081543 C-50.69214844 214.60455933 -50.69214844 214.60455933 -51.40625 215.62109375 C-51.81166016 216.2030249 -52.21707031 216.78495605 -52.63476562 217.38452148 C-55.7893003 221.1172747 -58.75813867 222.42706532 -63.5078125 223.3515625 C-64.57773437 223.56296875 -65.64765625 223.774375 -66.75 223.9921875 C-67.86375 224.20101562 -68.9775 224.40984375 -70.125 224.625 C-71.21554687 224.8415625 -72.30609375 225.058125 -73.4296875 225.28125 C-84.62408757 227.45049977 -95.42620422 228.18662429 -106.82202148 228.18530273 C-108.93038035 228.18749261 -111.03821722 228.20572644 -113.14648438 228.22460938 C-120.96710896 228.25593456 -128.36761816 227.78591462 -136 226 C-136.05945801 225.05870239 -136.05945801 225.05870239 -136.12011719 224.09838867 C-138.61025118 186.3370888 -148.67458789 155.94690489 -175 128 C-175.5878125 127.34773438 -176.175625 126.69546875 -176.78125 126.0234375 C-195.19866017 106.39435561 -221.71401827 94.01694853 -247 86 C-234.72884066 73.72884066 -200.56701939 73.60919907 -184.5 73.5 C-158.14260424 73.69527583 -120.25641124 78.67366031 -100 98 C-92.80656991 112.15248777 -94.81281277 130.86465375 -98.83203125 145.6171875 C-101.29812475 152.75978606 -105.2471585 158.34229334 -109.6875 164.375 C-110.59725586 165.62216797 -110.59725586 165.62216797 -111.52539062 166.89453125 C-113.01297066 168.93263303 -114.50457581 170.96765065 -116 173 C-111.78451037 178.00186537 -107.44595704 182.8209128 -102.875 187.5 C-102.26785156 188.14453125 -101.66070312 188.7890625 -101.03515625 189.453125 C-100.44347656 190.05640625 -99.85179687 190.6596875 -99.2421875 191.28125 C-98.7147998 191.82845703 -98.18741211 192.37566406 -97.64404297 192.93945312 C-96.0277991 194.22858873 -96.0277991 194.22858873 -93.89990234 193.75634766 C-91.58429078 192.83450692 -90.43805852 191.70236432 -88.75 189.875 C-80.03284788 180.76417004 -80.03284788 180.76417004 -74.82421875 177.734375 C-71.30088294 174.38456536 -71.98011099 169.28875933 -71.796875 164.6875 C-71.4243968 142.36965 -77.15443356 122.16363256 -91.6796875 104.77734375 C-93 103 -93 103 -93 101 C-92.47792969 100.82984375 -91.95585937 100.6596875 -91.41796875 100.484375 C-56.66925096 89.04346616 -30.0082202 69.65473401 -12.703125 36.7265625 C-7.89042131 27.1453489 -4.73877627 17.33941118 -2 7 C-1.34316651 4.6637247 -0.67231072 2.33188855 0 0 Z " fill="#0D65FD" transform="translate(531,238)"/>
<path d="M0 0 C20.0786974 2.2834597 40.96784004 10.31149679 56 24 C56.62003906 24.51691406 57.24007813 25.03382813 57.87890625 25.56640625 C67.90751903 34.51812101 72.71338948 47.24761209 74.2734375 60.28515625 C75.28879057 81.17799818 63.83529707 100.07788804 50.5625 115.125 C49.05031796 116.75805374 47.52966078 118.38330679 46 120 C45.31421875 120.73863281 44.6284375 121.47726562 43.921875 122.23828125 C37.52816722 128.90431362 30.4095548 134.51983048 23 140 C22.4519873 140.40831055 21.90397461 140.81662109 21.33935547 141.23730469 C3.24211886 154.52057845 -17.91991549 164.47626571 -39 172 C-39.93376465 172.33725098 -40.8675293 172.67450195 -41.82958984 173.02197266 C-55.08412065 177.76337756 -68.37107306 181.75072161 -82.19384766 184.44873047 C-84.05360757 184.8140809 -85.91024082 185.19575244 -87.76318359 185.59423828 C-103.09920191 188.85217651 -118.19164384 189.39424853 -133.8125 189.4375 C-134.75505646 189.4436734 -135.69761292 189.4498468 -136.66873169 189.45620728 C-167.47218907 189.58594204 -200.67440174 184.47437269 -225 164 C-225.78761719 163.35933594 -226.57523437 162.71867188 -227.38671875 162.05859375 C-235.98207695 154.3680101 -243.03727915 141.65729379 -244 130 C-244.07992188 129.12730469 -244.15984375 128.25460937 -244.2421875 127.35546875 C-245.16242988 107.13720234 -235.27776489 87.68393868 -222 73 C-217.13563471 67.86338937 -212.10047098 62.90115398 -207 58 C-207 62.10555221 -208.70685757 63.64547442 -211.125 66.9375 C-221.34141674 81.26299896 -226.56245401 95.32144738 -225 113 C-221.87570861 128.09191602 -213.09719231 139.26146482 -200.4375 147.625 C-166.86159921 168.75045338 -119.60594298 167.87587275 -82.0703125 159.48828125 C-52.34280198 152.5292409 -23.96803713 141.91544161 1 124 C1.6079541 123.56413574 2.2159082 123.12827148 2.84228516 122.67919922 C9.21510039 118.05368526 15.15918316 113.19797285 20.51171875 107.3984375 C22 106 22 106 24 106 C24.24621094 105.43667969 24.49242187 104.87335938 24.74609375 104.29296875 C26.21685205 101.60345123 28.02397663 99.60269292 30.0625 97.3125 C42.43158469 82.36569007 48.71714846 65.45451156 47 46 C44.48876844 33.36910315 37.41006461 22.51066883 27 15 C18.38995038 9.51330575 9.34479598 5.09805006 0 1 C0 0.67 0 0.34 0 0 Z " fill="#F8A626" transform="translate(548,312)"/>
<path d="M0 0 C1.03349579 0.35433105 2.06699158 0.70866211 3.13180542 1.07373047 C6.69581112 2.30296349 10.24880603 3.5606573 13.80078125 4.82421875 C15.12618591 5.29415264 16.45164175 5.76394216 17.77714539 6.2335968 C20.5486902 7.21624399 23.31960987 8.20062855 26.09008789 9.1862793 C29.57357703 10.42544567 33.05858634 11.6602696 36.54405403 12.89385796 C52.10469906 18.40338043 67.61231583 24.02003911 83 30 C80.8730562 32.1269438 79.83111448 32.53466683 77.02514648 33.40454102 C75.79893837 33.78987755 75.79893837 33.78987755 74.54795837 34.18299866 C73.22291039 34.58934792 73.22291039 34.58934792 71.87109375 35.00390625 C70.96625748 35.28725327 70.0614212 35.57060028 69.12916565 35.86253357 C66.23374196 36.76841005 63.3358282 37.66596391 60.4375 38.5625 C57.53595426 39.46367412 54.63499099 40.36662031 51.73512268 41.2731781 C49.92883785 41.83749809 48.12151209 42.39849842 46.31309509 42.95594788 C45.49877518 43.20968674 44.68445526 43.4634256 43.84545898 43.72485352 C43.12535141 43.9475441 42.40524384 44.17023468 41.66331482 44.39967346 C39.98669617 44.87161757 39.98669617 44.87161757 39 46 C39.31563369 47.33763383 39.65231038 48.67033808 40 50 C41.31954396 66.70222759 38.68228467 79.26072679 28.3125 92.6875 C19.10513109 102.85396983 5.67419855 107.33281389 -7.625 108.25 C-21.80210845 108.00272485 -33.42943424 102.28151316 -43.515625 92.6796875 C-52.68975039 82.78432584 -55.9439096 71.27940243 -56 58 C-55.67 54.04 -55.34 50.08 -55 46 C-64.24 43.03 -73.48 40.06 -83 37 C-83 36.34 -83 35.68 -83 35 C-78.05342384 33.28711039 -73.10549296 31.57821574 -68.15625 29.87304688 C-66.47194969 29.29211922 -64.78802824 28.71009192 -63.10449219 28.12695312 C-60.68783188 27.29008842 -58.2698471 26.45715747 -55.8515625 25.625 C-55.0963028 25.36251465 -54.34104309 25.1000293 -53.56289673 24.82958984 C-48.22774341 23 -48.22774341 23 -46 23 C-46.495 22.01 -46.495 22.01 -47 21 C-48.11036621 21.36351562 -49.22073242 21.72703125 -50.36474609 22.1015625 C-54.4749482 23.44631984 -58.58639857 24.78722425 -62.69824219 26.12695312 C-64.47951127 26.70792889 -66.26043763 27.2899565 -68.04101562 27.87304688 C-70.59676707 28.7097851 -73.15371716 29.5427635 -75.7109375 30.375 C-76.50994476 30.63748535 -77.30895203 30.8999707 -78.13217163 31.17041016 C-83.77225659 33 -83.77225659 33 -86 33 C-85.73123047 34.68029297 -85.73123047 34.68029297 -85.45703125 36.39453125 C-85.24131058 37.8670593 -85.02651488 39.33972307 -84.8125 40.8125 C-84.69197266 41.55048828 -84.57144531 42.28847656 -84.44726562 43.04882812 C-83.6826982 48.49945399 -83.6826982 48.49945399 -85.28515625 51.02734375 C-87 52 -87 52 -89.625 51.75 C-92 51 -92 51 -93 50 C-93.42594909 44.46266177 -92.16363241 39.3817999 -91 34 C-95.95 32.515 -95.95 32.515 -101 31 C-97.68796909 28.51597682 -95.84910342 27.39974542 -92.11254883 26.10571289 C-91.13713638 25.76390488 -90.16172394 25.42209686 -89.15675354 25.06993103 C-88.10084518 24.70783035 -87.04493683 24.34572968 -85.95703125 23.97265625 C-84.85233994 23.5869899 -83.74764862 23.20132355 -82.60948181 22.80397034 C-79.01290964 21.54971988 -75.41299742 20.30543381 -71.8125 19.0625 C-66.8855194 17.35630517 -61.95982456 15.64645091 -57.03515625 13.93359375 C-55.82088959 13.51174805 -54.60662292 13.08990234 -53.3555603 12.65527344 C-46.33619316 10.20450586 -39.36472213 7.66243378 -32.43359375 4.97265625 C-31.66856033 4.67913773 -30.90352692 4.3856192 -30.11531067 4.08320618 C-26.68707175 2.76787464 -23.27268747 1.42984936 -19.87426758 0.03930664 C-18.69372803 -0.41452393 -17.51318848 -0.86835449 -16.296875 -1.3359375 C-15.31041992 -1.73345215 -14.32396484 -2.1309668 -13.30761719 -2.54052734 C-8.37441661 -3.22581547 -4.62608641 -1.65786667 0 0 Z " fill="#0D65FD" transform="translate(443,213)"/>
<path d="M0 0 C9.9 0 19.8 0 30 0 C37.34616605 8.14352571 37.34616605 8.14352571 38.81542969 12.01416016 C41.02849299 17.291097 43.99763849 21.77579489 47.2265625 26.48046875 C48.29229117 28.09096707 49.35478252 29.70361222 50.4140625 31.31835938 C52.02388185 33.75982062 53.63397215 36.20110298 55.24414062 38.64233398 C56.84310009 41.06711638 58.44110246 43.49252765 60.0390625 45.91796875 C60.50494781 46.62358444 60.97083313 47.32920013 61.45083618 48.05619812 C66.02601508 55.00132703 70.50158302 62.00246247 75 69 C75.33 46.23 75.66 23.46 76 0 C85.57 0 95.14 0 105 0 C105 38.61 105 77.22 105 117 C75 117 75 117 66.5078125 108.69140625 C64.52436829 105.85179138 64.52436829 105.85179138 63.21606445 103.32983398 C62.45599594 101.9155159 62.45599594 101.9155159 61.68057251 100.47262573 C61.16723358 99.51228424 60.65389465 98.55194275 60.125 97.5625 C58.9847559 95.6279368 57.83385487 93.69961697 56.67260742 91.77758789 C54.39803055 87.98177612 52.18307945 84.16107631 50.01806641 80.30175781 C46.08148007 73.31438343 41.71042109 66.63916671 37.3125 59.9375 C35.5802324 57.21022375 33.85693194 54.47759631 32.13793945 51.74194336 C31.11630504 50.04788301 31.11630504 50.04788301 30 49 C29.67 71.44 29.34 93.88 29 117 C19.43 117 9.86 117 0 117 C0 78.39 0 39.78 0 0 Z " fill="#0D65FD" transform="translate(72,588)"/>
<path d="M0 0 C13.9947453 10.69449193 22.3410805 24.62369309 24.71875 42.11328125 C26.4460752 59.84235516 22.06822452 75.34415513 11.8125 89.8125 C-0.00687659 104.01161684 -15.82929696 109.24212489 -33.4609375 111.28515625 C-49.74553424 112.0026768 -65.83142699 105.68082493 -78.0625 95.1875 C-89.60972287 83.83071109 -95.9914892 69.12350189 -96.24169922 52.97070312 C-96.29743146 35.54290277 -92.71005328 21.15786263 -80.2734375 8.24609375 C-79.52320313 7.50488281 -78.77296875 6.76367188 -78 6 C-77.37351562 5.35160156 -76.74703125 4.70320312 -76.1015625 4.03515625 C-56.51919407 -14.84489095 -21.71765548 -14.87692608 0 0 Z M-59.30859375 26.78125 C-66.3428259 36.00860302 -66.80290188 46.81591601 -66 58 C-64.07406319 66.85930934 -59.75488706 74.69968957 -52.1875 79.875 C-44.31609992 84.3364615 -35.60864919 85.11838851 -26.9375 82.75 C-18.77243097 80.08183826 -12.9017192 75.28757721 -8.76953125 67.7578125 C-3.57895479 56.62711785 -3.94036263 45.48953972 -8 34 C-11.65692467 26.5494432 -17.0654306 21.0055303 -24.796875 17.86328125 C-37.75808772 14.37007636 -50.20142661 16.91975184 -59.30859375 26.78125 Z " fill="#0D65FD" transform="translate(582,596)"/>
<path d="M0 0 C9.6525 -0.0825 19.305 -0.165 29.25 -0.25 C32.27317383 -0.28641602 35.29634766 -0.32283203 38.41113281 -0.36035156 C40.84178968 -0.37204805 43.27245446 -0.38223759 45.703125 -0.390625 C47.55429932 -0.4213208 47.55429932 -0.4213208 49.44287109 -0.45263672 C61.1605007 -0.45729211 71.96718911 2.19814798 81 10 C89.41922183 18.69822138 91.48182574 26.98429178 91.34960938 38.76171875 C91.02202807 48.76622895 88.07889518 55.7577457 81 63 C76.61206137 66.51636178 72.22053537 68.95420203 67 71 C70.8837687 79.17826438 75.40949987 86.9317914 80.0625 94.6875 C80.77703354 95.88325994 81.491228 97.07922257 82.20507812 98.27539062 C82.72538101 99.14721481 82.72538101 99.14721481 83.25619507 100.03665161 C84.83897461 102.69020262 86.41994774 105.34482426 88 108 C88.45745605 108.76521973 88.91491211 109.53043945 89.38623047 110.31884766 C92 114.76559063 92 114.76559063 92 117 C63.90068164 119.6407337 63.90068164 119.6407337 56.68115234 115.75048828 C53.14076986 112.17783249 51.67550184 107.5795612 50.08642578 102.89550781 C48.10825681 97.62335409 45.36594476 92.72017203 42.69345093 87.77484131 C41.76244139 86.02340503 40.87654067 84.24823081 39.99145508 82.47314453 C39.15263794 80.84675049 39.15263794 80.84675049 38.296875 79.1875 C37.80541992 78.21167969 37.31396484 77.23585938 36.80761719 76.23046875 C34.83368091 73.29104354 34.83368091 73.29104354 29 73 C29 87.52 29 102.04 29 117 C19.43 117 9.86 117 0 117 C0 78.39 0 39.78 0 0 Z M29 24 C29 33.24 29 42.48 29 52 C32.67125 52.0825 36.3425 52.165 40.125 52.25 C41.2711377 52.28641602 42.41727539 52.32283203 43.59814453 52.36035156 C49.56760673 52.4252484 53.38882187 52.21340877 58 48 C60.93097803 44.96368027 61.43163816 42.81035509 61.4375 38.625 C61.27809611 33.64362842 60.58509044 30.67701584 57 27 C50.99817106 23.67530265 45.81962137 23.63377923 39.0625 23.8125 C35.741875 23.874375 32.42125 23.93625 29 24 Z " fill="#0D65FD" transform="translate(622,588)"/>
<path d="M0 0 C11.55 0 23.1 0 35 0 C45.28960221 28.24618568 55.56014454 56.49916952 65.76922607 84.77456665 C66.75782567 87.51259241 67.74716104 90.25035054 68.73712158 92.98788452 C70.12352506 96.82196728 71.50724912 100.6570113 72.890625 104.4921875 C73.30841217 105.64688034 73.72619934 106.80157318 74.15664673 107.99125671 C74.53324432 109.03683243 74.90984192 110.08240814 75.29785156 111.15966797 C75.79360687 112.53298782 75.79360687 112.53298782 76.29937744 113.93405151 C77 116 77 116 77 117 C66.44 117 55.88 117 45 117 C44.01 114.07125 43.02 111.1425 42 108.125 C41.68675781 107.20348145 41.37351562 106.28196289 41.05078125 105.33251953 C40.80714844 104.60661621 40.56351562 103.88071289 40.3125 103.1328125 C40.06113281 102.38918457 39.80976563 101.64555664 39.55078125 100.87939453 C39 99 39 99 39 97 C24.81 97.33 10.62 97.66 -4 98 C-5.98 103.94 -7.96 109.88 -10 116 C-11 117 -11 117 -13.95922852 117.11352539 C-15.25272217 117.10828857 -16.54621582 117.10305176 -17.87890625 117.09765625 C-18.90889992 117.09553383 -18.90889992 117.09553383 -19.95970154 117.09336853 C-22.16067801 117.08775479 -24.36155409 117.07520007 -26.5625 117.0625 C-28.05143083 117.05748676 -29.54036324 117.05292355 -31.02929688 117.04882812 C-34.68623075 117.03778093 -38.34310558 117.02050713 -42 117 C-37.48392853 103.22253344 -32.73995007 89.54994775 -27.75 75.9375 C-27.07200559 74.08114964 -26.39427865 72.22470157 -25.71679688 70.36816406 C-24.26536932 66.39244367 -22.81211179 62.41739895 -21.35742188 58.44287109 C-18.81296812 51.49051273 -16.2735718 44.53631099 -13.734375 37.58203125 C-9.15936273 25.05354827 -4.58043741 12.52650056 0 0 Z M17 34 C15.14470448 39.37382856 13.29339246 44.74900616 11.44580078 50.12548828 C10.81636822 51.95529457 10.18583799 53.78472364 9.55419922 55.61376953 C8.64784295 58.23893016 7.74540942 60.86541054 6.84375 63.4921875 C6.55939087 64.31306854 6.27503174 65.13394958 5.98205566 65.97970581 C4.53055927 69.89902287 4.53055927 69.89902287 4 74 C12.91 74 21.82 74 31 74 C28.46626216 64.70003302 28.46626216 64.70003302 25.51953125 55.58203125 C25.19295784 54.63984993 25.19295784 54.63984993 24.85978699 53.67863464 C24.18075415 51.72205508 23.49675088 49.76725996 22.8125 47.8125 C22.34406631 46.46561116 21.87596523 45.11860659 21.40820312 43.77148438 C20.27595638 40.51298342 19.13925314 37.25605898 18 34 C17.67 34 17.34 34 17 34 Z " fill="#0D65FD" transform="translate(231,588)"/>
<path d="M0 0 C11.22 0 22.44 0 34 0 C39.62412885 13.49790925 39.62412885 13.49790925 41.45678711 18.63427734 C41.87214722 19.79327042 42.28750732 20.95226349 42.7154541 22.14637756 C43.14837769 23.36393234 43.58130127 24.58148712 44.02734375 25.8359375 C44.49793327 27.15163831 44.9688482 28.46722276 45.44006348 29.78269958 C46.43181564 32.55283962 47.42185553 35.32358206 48.41036987 38.09487915 C50.97536794 45.28564704 53.54953648 52.47313119 56.125 59.66015625 C56.50573575 60.72307294 56.50573575 60.72307294 56.89416313 61.80746269 C60.09504771 70.74051074 63.32598599 79.66119126 66.625 88.55859375 C66.96052383 89.4636969 67.29604767 90.36880005 67.64173889 91.30133057 C69.14931978 95.36140944 70.66480108 99.41837895 72.18920898 103.47216797 C72.70820624 104.86294242 73.2271703 106.25372926 73.74609375 107.64453125 C74.18622803 108.81346924 74.6263623 109.98240723 75.07983398 111.18676758 C76 114 76 114 76 117 C65.77 117 55.54 117 45 117 C42.69 110.73 40.38 104.46 38 98 C23.81 97.67 9.62 97.34 -5 97 C-5.66 99.97 -6.32 102.94 -7 106 C-8.32 109.63 -9.64 113.26 -11 117 C-21.23 117 -31.46 117 -42 117 C-41.3603575 113.80178752 -40.80122563 111.16754491 -39.73510742 108.17431641 C-39.35042801 107.08669258 -39.35042801 107.08669258 -38.95797729 105.97709656 C-38.67664948 105.19317032 -38.39532166 104.40924408 -38.10546875 103.6015625 C-37.65616501 102.33727165 -37.65616501 102.33727165 -37.19778442 101.04743958 C-36.19812757 98.2385992 -35.19306141 95.43173152 -34.1875 92.625 C-33.48129437 90.64724164 -32.7751598 88.66945789 -32.0690918 86.69165039 C-26.62903612 71.47319239 -21.14174998 56.27158771 -15.63247681 41.07806396 C-14.75861587 38.66791052 -13.88553735 36.25747323 -13.01327515 33.84674072 C-11.77882158 30.43707758 -10.5403902 27.0288855 -9.30078125 23.62109375 C-8.93985382 22.62269974 -8.57892639 21.62430573 -8.20706177 20.59565735 C-5.66400176 13.62442593 -2.86146045 6.86750509 0 0 Z M16 34 C14.14670004 39.53525493 12.2953379 45.07115264 10.44580078 50.60766602 C9.81580516 52.49261162 9.18527217 54.3773777 8.55419922 56.26196289 C7.64931515 58.9645405 6.74634015 61.66774931 5.84375 64.37109375 C5.55939087 65.21900986 5.27503174 66.06692596 4.98205566 66.9405365 C3.61035935 70.40146429 3.61035935 70.40146429 3 74 C11.91 74 20.82 74 30 74 C28.28931199 66.30190394 26.17780265 59.00741136 23.68652344 51.55859375 C22.99312066 49.47937175 22.31273464 47.39616382 21.6328125 45.3125 C21.19348662 43.98932467 20.75341035 42.6663982 20.3125 41.34375 C19.91675781 40.14943359 19.52101563 38.95511719 19.11328125 37.72460938 C18.29779446 34.87438902 18.29779446 34.87438902 16 34 Z " fill="#0D65FD" transform="translate(765,588)"/>
<path d="M0 0 C10.56 0 21.12 0 32 0 C33.05912598 3.23067261 33.05912598 3.23067261 34.13964844 6.52661133 C36.48494652 13.6796444 38.83219793 20.8320354 41.18038559 27.98412037 C42.60263024 32.31617698 44.02423661 36.64844078 45.44433594 40.98120117 C46.81738586 45.1703305 48.19217553 49.35888532 49.56812286 53.54706383 C50.09015881 55.13706222 50.61159021 56.72725924 51.13237762 58.31766701 C51.86752717 60.56233939 52.60491518 62.80626562 53.34277344 65.05004883 C53.55281006 65.69310471 53.76284668 66.33616058 53.97924805 66.998703 C55.86454766 72.71858011 57.9382905 78.33029888 60 84 C69.24 56.28 78.48 28.56 88 0 C98.56 0 109.12 0 120 0 C108.22442927 34.36150147 96.25629494 68.66416883 83.875 102.8125 C83.62502258 103.50444458 83.37504517 104.19638916 83.11749268 104.90930176 C82.43309998 106.80137542 81.74405254 108.69176355 81.0546875 110.58203125 C80.67812012 111.61561768 80.30155273 112.6492041 79.91357422 113.71411133 C79 116 79 116 78 117 C75.26105915 117.08858646 72.5474673 117.11523479 69.80859375 117.09765625 C68.98875504 117.0962413 68.16891632 117.09482635 67.32423401 117.09336853 C64.69528618 117.08775289 62.06642227 117.07519779 59.4375 117.0625 C57.65950643 117.05748701 55.88151154 117.05292376 54.10351562 117.04882812 C49.73564455 117.03777839 45.36783652 117.02050331 41 117 C38.08658068 108.81116986 35.17344546 100.62223919 32.26293945 92.43237305 C31.89768661 91.40459244 31.53243378 90.37681183 31.15611267 89.31788635 C30.37978067 87.13335213 29.60346488 84.94881215 28.8271637 82.76426697 C26.35105271 75.79755314 23.87217415 68.83183132 21.39114761 61.86686707 C19.3951405 56.26318073 17.40096767 50.65884347 15.40790939 45.05410767 C14.17913556 41.59890342 12.94947151 38.14402163 11.7177124 34.68988037 C10.32342791 30.77988903 8.93307868 26.86850872 7.54296875 22.95703125 C6.92044975 21.21419106 6.92044975 21.21419106 6.28535461 19.43614197 C5.70167366 17.79096336 5.70167366 17.79096336 5.10620117 16.11254883 C4.60234138 14.69731682 4.60234138 14.69731682 4.08830261 13.25349426 C2.6216915 8.869042 1.32847891 4.42826305 0 0 Z " fill="#0D65FD" transform="translate(311,588)"/>
<path d="M0 0 C9.9 0 19.8 0 30 0 C30 38.61 30 77.22 30 117 C20.1 117 10.2 117 0 117 C0 78.39 0 39.78 0 0 Z " fill="#0E66FE" transform="translate(441,588)"/>
<path d="M0 0 C0.66 0 1.32 0 2 0 C3.28556666 3.80731355 4.56721183 7.61592191 5.84521484 11.42578125 C6.28065756 12.72204323 6.71717592 14.01794438 7.15478516 15.31347656 C7.78309327 17.17418041 8.40723259 19.03629031 9.03125 20.8984375 C9.59682617 22.57945557 9.59682617 22.57945557 10.17382812 24.29443359 C11 27 11 27 11 29 C21.23 29 31.46 29 42 29 C42 29.66 42 30.32 42 31 C39.90790401 32.6489575 37.81566683 34.17943225 35.625 35.6875 C35.04105469 36.09677734 34.45710937 36.50605469 33.85546875 36.92773438 C31.90779644 38.29110499 29.95368931 39.64526573 28 41 C24.7 43.31 21.4 45.62 18 48 C20.97 57.57 23.94 67.14 27 77 C23.57710229 77 22.91506966 76.47811081 20.234375 74.515625 C19.50863281 73.99226563 18.78289063 73.46890625 18.03515625 72.9296875 C17.28105469 72.37539062 16.52695312 71.82109375 15.75 71.25 C10.63232493 67.51668729 5.56658705 64.03364268 0 61 C-0.44802979 61.33733154 -0.89605957 61.67466309 -1.35766602 62.0222168 C-3.42528524 63.57818877 -5.49388639 65.1328503 -7.5625 66.6875 C-8.26697266 67.21794922 -8.97144531 67.74839844 -9.69726562 68.29492188 C-11.79357192 69.8695667 -13.89534855 71.43653045 -16 73 C-16.99942627 73.74757568 -16.99942627 73.74757568 -18.01904297 74.51025391 C-22.76682099 78 -22.76682099 78 -25 78 C-22.27712157 67.58618423 -19.11951999 57.30001626 -16 47 C-16.65871094 46.79117188 -17.31742187 46.58234375 -17.99609375 46.3671875 C-22.11864611 44.49086328 -25.47575829 41.86683555 -29.0625 39.125 C-29.76955078 38.59519531 -30.47660156 38.06539062 -31.20507812 37.51953125 C-34.76754906 34.82342648 -37.81034415 32.18965585 -41 29 C-30.44 29 -19.88 29 -9 29 C-7.515 23.555 -7.515 23.555 -6 18 C-4.96172465 14.75886309 -3.90947195 11.53299297 -2.8125 8.3125 C-2.53986328 7.50361328 -2.26722656 6.69472656 -1.98632812 5.86132812 C-1.32704048 3.9065981 -0.6639433 1.95315359 0 0 Z " fill="#F9A726" transform="translate(529,148)"/>
<path d="M0 0 C0.77239014 0.06566162 1.54478027 0.13132324 2.34057617 0.19897461 C10.661746 0.87659025 18.96924622 1.28423949 27.3125 1.5625 C28.54162109 1.60568359 29.77074219 1.64886719 31.03710938 1.69335938 C34.02466486 1.79798194 37.01228143 1.90016327 40 2 C38.72494758 4.80428566 37.42022876 6.81604371 35.20703125 8.953125 C34.66296631 9.48558838 34.11890137 10.01805176 33.55834961 10.56665039 C32.98221924 11.12215576 32.40608887 11.67766113 31.8125 12.25 C26.45590768 17.49597254 26.45590768 17.49597254 21.4375 23.0625 C14.91078056 30.72571288 7.58565766 37.77493727 -0.07421875 44.29296875 C-2.31136611 46.27599795 -4.40054652 48.37193386 -6.5 50.5 C-17.36032389 61.47267206 -17.36032389 61.47267206 -24 65 C-22.7431593 61.08879214 -21.33808689 57.32796857 -19.6796875 53.5703125 C-13.66603473 39.76457916 -8.36425632 25.93015111 -3.8203125 11.57373047 C-2.58647721 7.70257225 -1.29603058 3.85070626 0 0 Z " fill="#0D65FD" transform="translate(389,511)"/>
<path d="M0 0 C3.95444763 1.60239465 6.66847758 4.33621473 9.625 7.3125 C10.11484375 7.78623047 10.6046875 8.25996094 11.109375 8.74804688 C13.98881543 11.62355364 15.79352193 14.10378552 17 18 C16.38125 18.62261719 16.38125 18.62261719 15.75 19.2578125 C4.44692957 31.31778497 -3.34887422 47.6268641 -3.234375 64.34375 C-2.7642392 69.67195572 -1.34136222 74.83415861 0 80 C-8.32641839 76.35605322 -12.5441775 67.96872013 -16 60 C-16.4125 59.05125 -16.825 58.1025 -17.25 57.125 C-21.1133115 41.02786874 -17.24742636 26.79971611 -9.0625 12.75 C-6.29365877 8.30547044 -3.23900161 4.11192403 0 0 Z " fill="#0D65FD" transform="translate(347,371)"/>
<path d="M0 0 C13.29650331 3.49907982 23.64183296 12.9864848 30.58984375 24.484375 C31.05519531 25.31453125 31.52054688 26.1446875 32 27 C32.41378906 27.70640625 32.82757812 28.4128125 33.25390625 29.140625 C34 31 34 31 33 34 C32.46375 33.5153125 31.9275 33.030625 31.375 32.53125 C21.7034841 24.25955877 10.22613219 18.49318063 -2 15 C-1.47462276 9.9697924 -0.89405214 4.98114761 0 0 Z " fill="#0D65FD" transform="translate(553,320)"/>
<path d="M0 0 C1.1446875 0.3403125 1.1446875 0.3403125 2.3125 0.6875 C2.9375 3 2.9375 3 3.3125 5.6875 C2.3225 7.1725 2.3225 7.1725 1.3125 8.6875 C-1.6575 8.1925 -1.6575 8.1925 -4.6875 7.6875 C-5.375 5.375 -5.375 5.375 -5.6875 2.6875 C-4.0011022 -0.12316299 -3.27764429 -0.38112143 0 0 Z " fill="#0D65FD" transform="translate(776.6875,269.3125)"/>
<path d="M0 0 C0.625 2.3125 0.625 2.3125 1 5 C0.01 6.485 0.01 6.485 -1 8 C-3.5 8.375 -3.5 8.375 -6 8 C-8 5 -8 5 -7.75 2.375 C-7.5025 1.59125 -7.255 0.8075 -7 0 C-4.3333581 -1.33332095 -2.83319697 -0.67102033 0 0 Z " fill="#0D65FD" transform="translate(675,154)"/>
<path d="M0 0 C2.5625 0.1875 2.5625 0.1875 4.5625 2.1875 C4.1875 5.3125 4.1875 5.3125 3.5625 8.1875 C1.8125 8.875 1.8125 8.875 -0.4375 9.1875 C-2.6875 7.75 -2.6875 7.75 -4.4375 6.1875 C-3.3735 0.2595 -3.3735 0.2595 0 0 Z " fill="#0E65FD" transform="translate(603.4375,113.8125)"/>
<path d="M0 0 C2.375 -0.125 2.375 -0.125 5 0 C5.66 0.66 6.32 1.32 7 2 C6.625 5.125 6.625 5.125 6 8 C4.35 8.33 2.7 8.66 1 9 C-0.625 7.3125 -0.625 7.3125 -2 5 C-1.1875 2.25 -1.1875 2.25 0 0 Z " fill="#0D66FD" transform="translate(371,90)"/>
<path d="M0 0 C2.4375 0.6875 2.4375 0.6875 5 2 C5.9375 4.5 5.9375 4.5 6 7 C4 9 4 9 1.5 9.3125 C0.2625 9.1578125 0.2625 9.1578125 -1 9 C-3 6 -3 6 -2.75 3.9375 C-2 2 -2 2 0 0 Z " fill="#0D65FD" transform="translate(84,379)"/>
<path d="M0 0 C2.5625 0.1875 2.5625 0.1875 4.5625 2.1875 C4.1875 5.3125 4.1875 5.3125 3.5625 8.1875 C2.5725 8.5175 1.5825 8.8475 0.5625 9.1875 C-2.125 7.75 -2.125 7.75 -4.4375 6.1875 C-3.3735 0.2595 -3.3735 0.2595 0 0 Z " fill="#0E65FD" transform="translate(793.4375,303.8125)"/>
<path d="M0 0 C2.4375 1.3125 2.4375 1.3125 3.375 3.25 C3.4375 5.3125 3.4375 5.3125 1.4375 8.3125 C-1.0625 8.625 -1.0625 8.625 -3.5625 8.3125 C-4.2225 7.6525 -4.8825 6.9925 -5.5625 6.3125 C-5.3125 3.25 -5.3125 3.25 -4.5625 0.3125 C-2.5625 -0.6875 -2.5625 -0.6875 0 0 Z " fill="#0D65FD" transform="translate(530.5625,89.6875)"/>
<path d="M0 0 C0.78375 0.04125 1.5675 0.0825 2.375 0.125 C3.5 1.875 3.5 1.875 4.375 4.125 C3.6875 6.3125 3.6875 6.3125 2.375 8.125 C-0.625 9.125 -0.625 9.125 -2.8125 8.1875 C-3.410625 7.836875 -4.00875 7.48625 -4.625 7.125 C-4.75 4.75 -4.75 4.75 -4.625 2.125 C-2.625 0.125 -2.625 0.125 0 0 Z " fill="#0D65FD" transform="translate(826.625,457.875)"/>
<path d="M0 0 C3 0.125 3 0.125 4 1.125 C4.125 4.125 4.125 4.125 4 7.125 C3 8.125 3 8.125 0 8.25 C-3 8.125 -3 8.125 -4 7.125 C-4.125 4.125 -4.125 4.125 -4 1.125 C-3 0.125 -3 0.125 0 0 Z " fill="#0D65FD" transform="translate(824,417.875)"/>
<path d="M0 0 C1.65 0.33 3.3 0.66 5 1 C5.625 3.875 5.625 3.875 6 7 C5.34 7.66 4.68 8.32 4 9 C0.875 8.625 0.875 8.625 -2 8 C-2.6875 6.25 -2.6875 6.25 -3 4 C-1.5625 1.75 -1.5625 1.75 0 0 Z " fill="#0D65FD" transform="translate(78,418)"/>
<path d="M0 0 C2.6875 0.875 2.6875 0.875 5 2 C5 3.98 5 5.96 5 8 C2.69 8.33 0.38 8.66 -2 9 C-2.33 6.69 -2.66 4.38 -3 2 C-2.01 1.34 -1.02 0.68 0 0 Z " fill="#0D65FD" transform="translate(148,236)"/>
<path d="M0 0 C2.5625 0.1875 2.5625 0.1875 4.5625 2.1875 C4.00694444 6.74305556 4.00694444 6.74305556 2.5625 8.1875 C0.125 8.375 0.125 8.375 -2.4375 8.1875 C-3.0975 7.5275 -3.7575 6.8675 -4.4375 6.1875 C-3.71780303 0.28598485 -3.71780303 0.28598485 0 0 Z " fill="#0D65FD" transform="translate(729.4375,205.8125)"/>
<path d="M0 0 C4.55555556 0.55555556 4.55555556 0.55555556 6 2 C6.1875 4.4375 6.1875 4.4375 6 7 C5.34 7.66 4.68 8.32 4 9 C-0.55555556 8.44444444 -0.55555556 8.44444444 -2 7 C-2.1875 4.5625 -2.1875 4.5625 -2 2 C-1.34 1.34 -0.68 0.68 0 0 Z " fill="#0D65FD" transform="translate(700,178)"/>
<path d="M0 0 C2.5 0.125 2.5 0.125 5 1 C6.3125 3.0625 6.3125 3.0625 7 5 C6.01 6.32 5.02 7.64 4 9 C-0.875 8.125 -0.875 8.125 -2 7 C-2.1875 4.5625 -2.1875 4.5625 -2 2 C-1.34 1.34 -0.68 0.68 0 0 Z " fill="#0D65FD" transform="translate(199,178)"/>
<path d="M0 0 C1.1446875 0.3403125 1.1446875 0.3403125 2.3125 0.6875 C3 3 3 3 3.3125 5.6875 C1.875 7.5 1.875 7.5 0.3125 8.6875 C-2.125 7.9375 -2.125 7.9375 -4.6875 6.6875 C-5.6875 4.75 -5.6875 4.75 -5.6875 2.6875 C-3.97309355 -0.07459928 -3.26180423 -0.37927956 0 0 Z " fill="#0E65FD" transform="translate(639.6875,132.3125)"/>
<path d="M0 0 C0.625 2.3125 0.625 2.3125 1 5 C0.01 6.485 0.01 6.485 -1 8 C-5.75 7.25 -5.75 7.25 -8 5 C-7.625 2.375 -7.625 2.375 -7 0 C-3.86650268 -1.04449911 -3.01031744 -0.93423645 0 0 Z " fill="#0D66FD" transform="translate(268,133)"/>
<path d="M0 0 C4.55555556 0.55555556 4.55555556 0.55555556 6 2 C6.1875 4.4375 6.1875 4.4375 6 7 C5.34 7.66 4.68 8.32 4 9 C-0.55555556 8.44444444 -0.55555556 8.44444444 -2 7 C-2.1875 4.5625 -2.1875 4.5625 -2 2 C-1.34 1.34 -0.68 0.68 0 0 Z " fill="#0E65FD" transform="translate(334,100)"/>
<path d="M0 0 C2.5625 0.1875 2.5625 0.1875 4.5625 2.1875 C4.00694444 6.74305556 4.00694444 6.74305556 2.5625 8.1875 C0.125 8.375 0.125 8.375 -2.4375 8.1875 C-3.0975 7.5275 -3.7575 6.8675 -4.4375 6.1875 C-3.71780303 0.28598485 -3.71780303 0.28598485 0 0 Z " fill="#0D65FD" transform="translate(451.4375,81.8125)"/>
<path d="M0 0 C2.33944736 0.28730055 4.6739143 0.61936779 7 1 C7.04254356 2.99954746 7.04080783 5.00041636 7 7 C6 8 6 8 3 8.125 C0 8 0 8 -1 7 C-1.125 4 -1.125 4 -1 1 C-0.67 0.67 -0.34 0.34 0 0 Z " fill="#0D65FD" transform="translate(107,305)"/>
<path d="M0 0 C3.125 0.375 3.125 0.375 6 1 C6 2.98 6 4.96 6 7 C3.6875 8.125 3.6875 8.125 1 9 C0.01 8.34 -0.98 7.68 -2 7 C-2.3125 4.5 -2.3125 4.5 -2 2 C-1.34 1.34 -0.68 0.68 0 0 Z " fill="#0E65FD" transform="translate(752,236)"/>
<path d="M0 0 C2.97 0.495 2.97 0.495 6 1 C6.6875 3.3125 6.6875 3.3125 7 6 C5.5625 7.8125 5.5625 7.8125 4 9 C1.5625 8.25 1.5625 8.25 -1 7 C-1.9375 5.0625 -1.9375 5.0625 -2 3 C-1.34 2.01 -0.68 1.02 0 0 Z " fill="#0D65FD" transform="translate(297,114)"/>
<path d="M0 0 C1.2684375 0.12375 1.2684375 0.12375 2.5625 0.25 C4.5625 3.25 4.5625 3.25 4.25 5.375 C3.5625 7.25 3.5625 7.25 2.5625 8.25 C0.125 8.4375 0.125 8.4375 -2.4375 8.25 C-3.0975 7.59 -3.7575 6.93 -4.4375 6.25 C-3.72185719 0.38172894 -3.72185719 0.38172894 0 0 Z " fill="#0D65FD" transform="translate(412.4375,83.75)"/>
<path d="M0 0 C2.5 -0.3125 2.5 -0.3125 5 0 C5.66 0.66 6.32 1.32 7 2 C6.44444444 6.55555556 6.44444444 6.55555556 5 8 C3.33382885 8.04063832 1.66611905 8.042721 0 8 C-1.125 5.6875 -1.125 5.6875 -2 3 C-1.34 2.01 -0.68 1.02 0 0 Z " fill="#0D65FD" transform="translate(75,458)"/>
<path d="M0 0 C2.5625 0.1875 2.5625 0.1875 4.5625 2.1875 C4.75 4.75 4.75 4.75 4.5625 7.1875 C3.5625 8.1875 3.5625 8.1875 0.5625 8.3125 C-2.4375 8.1875 -2.4375 8.1875 -3.4375 7.1875 C-3.5625 4.1875 -3.5625 4.1875 -3.4375 1.1875 C-2.4375 0.1875 -2.4375 0.1875 0 0 Z " fill="#0E65FD" transform="translate(817.4375,378.8125)"/>
<path d="M0 0 C3 0.125 3 0.125 4 1.125 C4.125 4.125 4.125 4.125 4 7.125 C3 8.125 3 8.125 0.5625 8.3125 C-2 8.125 -2 8.125 -4 6.125 C-4.1875 3.5625 -4.1875 3.5625 -4 1.125 C-3 0.125 -3 0.125 0 0 Z " fill="#0D65FD" transform="translate(96,341.875)"/>
<path d="M0 0 C1.2065625 0.0309375 1.2065625 0.0309375 2.4375 0.0625 C3.5625 2.375 3.5625 2.375 4.4375 5.0625 C3.4475 6.5475 3.4475 6.5475 2.4375 8.0625 C-0.0625 8.375 -0.0625 8.375 -2.5625 8.0625 C-3.2225 7.4025 -3.8825 6.7425 -4.5625 6.0625 C-3.83457637 0.09352625 -3.83457637 0.09352625 0 0 Z " fill="#0D65FD" transform="translate(807.5625,340.9375)"/>
<path d="M0 0 C2.5 -0.3125 2.5 -0.3125 5 0 C5.66 0.66 6.32 1.32 7 2 C6.44444444 6.55555556 6.44444444 6.55555556 5 8 C3.33382885 8.04063832 1.66611905 8.042721 0 8 C-1.125 5.6875 -1.125 5.6875 -2 3 C-1.34 2.01 -0.68 1.02 0 0 Z " fill="#0D65FD" transform="translate(125,270)"/>
<path d="M0 0 C2.6875 0.875 2.6875 0.875 5 2 C5.125 4.375 5.125 4.375 5 7 C4.34 7.66 3.68 8.32 3 9 C-1.55555556 8.44444444 -1.55555556 8.44444444 -3 7 C-3.25 4.5625 -3.25 4.5625 -3 2 C-2.01 1.34 -1.02 0.68 0 0 Z " fill="#0D65FD" transform="translate(173,206)"/>
<path d="M0 0 C2.5 -0.3125 2.5 -0.3125 5 0 C5.66 0.66 6.32 1.32 7 2 C6.44444444 6.55555556 6.44444444 6.55555556 5 8 C3.33382885 8.04063832 1.66611905 8.042721 0 8 C-1.125 5.6875 -1.125 5.6875 -2 3 C-1.34 2.01 -0.68 1.02 0 0 Z " fill="#0D65FD" transform="translate(229,154)"/>
<path d="M0 0 C2.5 -0.3125 2.5 -0.3125 5 0 C5.66 0.66 6.32 1.32 7 2 C6.44444444 6.55555556 6.44444444 6.55555556 5 8 C3.33382885 8.04063832 1.66611905 8.042721 0 8 C-1.125 5.6875 -1.125 5.6875 -2 3 C-1.34 2.01 -0.68 1.02 0 0 Z " fill="#0D65FD" transform="translate(488,84)"/>
<path d="M0 0 C3.125 0.375 3.125 0.375 6 1 C6.04254356 2.99954746 6.04080783 5.00041636 6 7 C5 8 5 8 2 8.125 C-1 8 -1 8 -2 7 C-2.1875 4.5625 -2.1875 4.5625 -2 2 C-1.34 1.34 -0.68 0.68 0 0 Z " fill="#0D65FD" transform="translate(565,100)"/>
</svg>
